<svg width="230" height="193" viewBox="0 0 230 193" fill="none" xmlns="http://www.w3.org/2000/svg">
    <g opacity="0.075">
        <rect x="2.6123" y="8.12854" width="168.096" height="3.69441" transform="rotate(45 2.6123 8.12854)"
              fill="#2B975D"/>
        <rect x="155.435" y="-21.9135" width="81.2771" height="3.69441" transform="rotate(45 155.435 -21.9135)"
              fill="#2B975D"/>
        <rect x="18.2866" y="-7.54541" width="168.096" height="3.69441" transform="rotate(45 18.2866 -7.54541)"
              fill="#2B975D"/>
        <rect x="156.741" y="-51.9553" width="121.916" height="3.69441" transform="rotate(45 156.741 -51.9553)"
              fill="#2B975D"/>
        <rect x="33.9609" y="-23.2196" width="168.096" height="3.69441" transform="rotate(45 33.9609 -23.2196)"
              fill="#2B975D"/>
        <rect x="158.047" y="-81.9974" width="160.707" height="3.69441" transform="rotate(45 158.047 -81.9974)"
              fill="#2B975D"/>
        <rect x="48.3286" y="-37.5875" width="168.096" height="3.69441" transform="rotate(45 48.3286 -37.5875)"
              fill="#2B975D"/>
        <rect x="156.741" y="-112.039" width="206.887" height="3.69441" transform="rotate(45 156.741 -112.039)"
              fill="#2B975D"/>
        <rect x="64.0024" y="-53.2615" width="168.096" height="3.69441" transform="rotate(45 64.0024 -53.2615)"
              fill="#2B975D"/>
        <rect x="155.435" y="-144.693" width="254.914" height="3.69441" transform="rotate(45 155.435 -144.693)"
              fill="#2B975D"/>
        <rect x="79.6768" y="-68.9357" width="168.096" height="3.69441" transform="rotate(45 79.6768 -68.9357)"
              fill="#2B975D"/>
        <rect x="211.6" y="36.8643" width="129.304" height="3.69441" transform="rotate(135 211.6 36.8643)"
              fill="#2B975D"/>
        <rect x="244.254" y="35.5581" width="155.165" height="3.6944" transform="rotate(135 244.254 35.5581)"
              fill="#2B975D"/>
        <rect x="274.296" y="34.2521" width="177.332" height="3.6944" transform="rotate(135 274.296 34.2521)"
              fill="#2B975D"/>
        <rect x="304.338" y="35.5581" width="197.651" height="3.6944" transform="rotate(135 304.338 35.5581)"
              fill="#2B975D"/>
        <rect x="334.38" y="36.8643" width="217.97" height="3.6944" transform="rotate(135 334.38 36.8643)"
              fill="#2B975D"/>
        <rect x="3.91846" y="9.43469" width="168.096" height="3.69441" transform="rotate(45 3.91846 9.43469)"
              fill="#2B975D"/>
        <rect x="156.741" y="-20.6072" width="81.2771" height="3.69441" transform="rotate(45 156.741 -20.6072)"
              fill="#2B975D"/>
        <rect x="19.5928" y="-6.23938" width="168.096" height="3.69441" transform="rotate(45 19.5928 -6.23938)"
              fill="#2B975D"/>
        <rect x="158.047" y="-50.6493" width="121.916" height="3.69441" transform="rotate(45 158.047 -50.6493)"
              fill="#2B975D"/>
        <rect x="35.2666" y="-21.9135" width="168.096" height="3.69441" transform="rotate(45 35.2666 -21.9135)"
              fill="#2B975D"/>
        <rect x="159.353" y="-80.6912" width="160.707" height="3.69441" transform="rotate(45 159.353 -80.6912)"
              fill="#2B975D"/>
        <rect x="49.6348" y="-36.2814" width="168.096" height="3.69441" transform="rotate(45 49.6348 -36.2814)"
              fill="#2B975D"/>
        <rect x="158.047" y="-110.733" width="206.887" height="3.69441" transform="rotate(45 158.047 -110.733)"
              fill="#2B975D"/>
        <rect x="65.3086" y="-51.9554" width="168.096" height="3.69441" transform="rotate(45 65.3086 -51.9554)"
              fill="#2B975D"/>
        <rect x="156.741" y="-143.387" width="254.914" height="3.69441" transform="rotate(45 156.741 -143.387)"
              fill="#2B975D"/>
        <rect x="80.9829" y="-67.6294" width="168.096" height="3.69441" transform="rotate(45 80.9829 -67.6294)"
              fill="#2B975D"/>
        <rect x="212.906" y="38.1704" width="129.304" height="3.69441" transform="rotate(135 212.906 38.1704)"
              fill="#2B975D"/>
        <rect x="245.561" y="36.8643" width="155.165" height="3.6944" transform="rotate(135 245.561 36.8643)"
              fill="#2B975D"/>
        <rect x="275.603" y="35.5581" width="177.332" height="3.6944" transform="rotate(135 275.603 35.5581)"
              fill="#2B975D"/>
        <rect x="305.644" y="36.8643" width="197.651" height="3.6944" transform="rotate(135 305.644 36.8643)"
              fill="#2B975D"/>
        <rect x="335.686" y="38.1704" width="217.97" height="3.6944" transform="rotate(135 335.686 38.1704)"
              fill="#2B975D"/>
        <rect x="3.91846" y="6.82227" width="168.096" height="3.69441" transform="rotate(45 3.91846 6.82227)"
              fill="#2B975D"/>
        <rect x="156.741" y="-23.2196" width="81.2771" height="3.69441" transform="rotate(45 156.741 -23.2196)"
              fill="#2B975D"/>
        <rect x="19.5928" y="-8.85168" width="168.096" height="3.69441" transform="rotate(45 19.5928 -8.85168)"
              fill="#2B975D"/>
        <rect x="158.047" y="-53.2615" width="121.916" height="3.69441" transform="rotate(45 158.047 -53.2615)"
              fill="#2B975D"/>
        <rect x="35.2666" y="-24.5258" width="168.096" height="3.69441" transform="rotate(45 35.2666 -24.5258)"
              fill="#2B975D"/>
        <rect x="159.353" y="-83.3035" width="160.707" height="3.69441" transform="rotate(45 159.353 -83.3035)"
              fill="#2B975D"/>
        <rect x="49.6348" y="-38.8937" width="168.096" height="3.69441" transform="rotate(45 49.6348 -38.8937)"
              fill="#2B975D"/>
        <rect x="158.047" y="-113.345" width="206.887" height="3.69441" transform="rotate(45 158.047 -113.345)"
              fill="#2B975D"/>
        <rect x="65.3086" y="-54.5676" width="168.096" height="3.69441" transform="rotate(45 65.3086 -54.5676)"
              fill="#2B975D"/>
        <rect x="156.741" y="-146" width="254.914" height="3.69441" transform="rotate(45 156.741 -146)" fill="#2B975D"/>
        <rect x="80.9829" y="-70.2418" width="168.096" height="3.69441" transform="rotate(45 80.9829 -70.2418)"
              fill="#2B975D"/>
        <rect x="212.906" y="35.5582" width="129.304" height="3.69441" transform="rotate(135 212.906 35.5582)"
              fill="#2B975D"/>
        <rect x="245.561" y="34.2521" width="155.165" height="3.6944" transform="rotate(135 245.561 34.2521)"
              fill="#2B975D"/>
        <rect x="275.603" y="32.9458" width="177.332" height="3.6944" transform="rotate(135 275.603 32.9458)"
              fill="#2B975D"/>
        <rect x="305.644" y="34.2521" width="197.651" height="3.6944" transform="rotate(135 305.644 34.2521)"
              fill="#2B975D"/>
        <rect x="335.686" y="35.5582" width="217.97" height="3.6944" transform="rotate(135 335.686 35.5582)"
              fill="#2B975D"/>
        <rect x="5.22412" y="8.12854" width="168.096" height="3.69441" transform="rotate(45 5.22412 8.12854)"
              fill="#2B975D"/>
        <rect x="158.046" y="-21.9133" width="81.2771" height="3.69441" transform="rotate(45 158.046 -21.9133)"
              fill="#2B975D"/>
        <rect x="20.8984" y="-7.54541" width="168.096" height="3.69441" transform="rotate(45 20.8984 -7.54541)"
              fill="#2B975D"/>
        <rect x="159.353" y="-51.9553" width="121.916" height="3.69441" transform="rotate(45 159.353 -51.9553)"
              fill="#2B975D"/>
        <rect x="36.5723" y="-23.2196" width="168.096" height="3.69441" transform="rotate(45 36.5723 -23.2196)"
              fill="#2B975D"/>
        <rect x="160.659" y="-81.9973" width="160.707" height="3.69441" transform="rotate(45 160.659 -81.9973)"
              fill="#2B975D"/>
        <rect x="50.9404" y="-37.5875" width="168.096" height="3.69441" transform="rotate(45 50.9404 -37.5875)"
              fill="#2B975D"/>
        <rect x="159.353" y="-112.039" width="206.887" height="3.69441" transform="rotate(45 159.353 -112.039)"
              fill="#2B975D"/>
        <rect x="66.6143" y="-53.2615" width="168.096" height="3.69441" transform="rotate(45 66.6143 -53.2615)"
              fill="#2B975D"/>
        <rect x="158.046" y="-144.693" width="254.914" height="3.69441" transform="rotate(45 158.046 -144.693)"
              fill="#2B975D"/>
        <rect x="82.2886" y="-68.9355" width="168.096" height="3.69441" transform="rotate(45 82.2886 -68.9355)"
              fill="#2B975D"/>
        <rect x="214.212" y="36.8643" width="129.304" height="3.69441" transform="rotate(135 214.212 36.8643)"
              fill="#2B975D"/>
        <rect x="246.866" y="35.5581" width="155.165" height="3.6944" transform="rotate(135 246.866 35.5581)"
              fill="#2B975D"/>
        <rect x="276.908" y="34.2521" width="177.332" height="3.6944" transform="rotate(135 276.908 34.2521)"
              fill="#2B975D"/>
        <rect x="306.95" y="35.5581" width="197.651" height="3.6944" transform="rotate(135 306.95 35.5581)"
              fill="#2B975D"/>
        <rect x="336.992" y="36.8643" width="217.97" height="3.6944" transform="rotate(135 336.992 36.8643)"
              fill="#2B975D"/>
    </g>
</svg>
