<svg width="40" height="35" viewBox="0 0 40 35" fill="none" xmlns="http://www.w3.org/2000/svg">
    <rect y="33.9561" width="26.1865" height="0.575528" fill="#C4C4C4"/>
    <rect x="13.5249" y="13.8126" width="12.6616" height="0.575528" fill="#C4C4C4"/>
    <rect y="30.5029" width="26.1865" height="0.575528" fill="#C4C4C4"/>
    <rect x="10.3594" y="10.3594" width="18.9924" height="0.575528" fill="#C4C4C4"/>
    <rect y="27.0497" width="26.1865" height="0.575528" fill="#C4C4C4"/>
    <rect x="7.19434" y="6.90625" width="25.0355" height="0.575528" fill="#C4C4C4"/>
    <rect y="23.8843" width="26.1865" height="0.575528" fill="#C4C4C4"/>
    <rect x="3.74121" y="3.74078" width="32.2296" height="0.575528" fill="#C4C4C4"/>
    <rect y="20.4312" width="26.1865" height="0.575528" fill="#C4C4C4"/>
    <rect x="0.000488281" y="0.287781" width="39.7114" height="0.575528" fill="#C4C4C4"/>
    <rect y="16.978" width="26.1865" height="0.575528" fill="#C4C4C4"/>
    <rect x="0.575684" y="0.28772" width="17.2658" height="0.575526" transform="rotate(90 0.575684 0.28772)"
          fill="#C4C4C4"/>
    <rect x="4.02881" y="3.74078" width="13.8127" height="0.575527" transform="rotate(90 4.02881 3.74078)"
          fill="#C4C4C4"/>
    <rect x="26.1865" y="14.1003" width="20.1435" height="0.575527" transform="rotate(90 26.1865 14.1003)"
          fill="#C4C4C4"/>
    <rect x="7.48193" y="6.90625" width="10.6473" height="0.575527" transform="rotate(90 7.48193 6.90625)"
          fill="#C4C4C4"/>
    <rect x="29.6401" y="10.3594" width="24.1722" height="0.575527" transform="rotate(90 29.6401 10.3594)"
          fill="#C4C4C4"/>
    <rect x="10.6475" y="10.3594" width="7.1941" height="0.575528" transform="rotate(90 10.6475 10.3594)"
          fill="#C4C4C4"/>
    <rect x="32.8052" y="6.90625" width="27.6254" height="0.575527" transform="rotate(90 32.8052 6.90625)"
          fill="#C4C4C4"/>
    <rect x="14.1006" y="13.8126" width="3.74093" height="0.575528" transform="rotate(90 14.1006 13.8126)"
          fill="#C4C4C4"/>
    <rect x="36.2583" y="3.74078" width="30.7908" height="0.575527" transform="rotate(90 36.2583 3.74078)"
          fill="#C4C4C4"/>
    <rect x="39.7119" y="0.5755" width="33.9562" height="0.575526" transform="rotate(90 39.7119 0.5755)"
          fill="#C4C4C4"/>
    <rect x="0.288086" y="33.9561" width="26.1865" height="0.575528" fill="#C4C4C4"/>
    <rect x="13.8135" y="13.8126" width="12.6616" height="0.575528" fill="#C4C4C4"/>
    <rect x="0.288086" y="30.5029" width="26.1865" height="0.575528" fill="#C4C4C4"/>
    <rect x="10.6475" y="10.3595" width="18.9924" height="0.575528" fill="#C4C4C4"/>
    <rect x="0.288086" y="27.0497" width="26.1865" height="0.575528" fill="#C4C4C4"/>
    <rect x="7.48242" y="6.90625" width="25.0355" height="0.575528" fill="#C4C4C4"/>
    <rect x="0.288086" y="23.8843" width="26.1865" height="0.575528" fill="#C4C4C4"/>
    <rect x="4.0293" y="3.74084" width="32.2296" height="0.575528" fill="#C4C4C4"/>
    <rect x="0.288086" y="20.4312" width="26.1865" height="0.575528" fill="#C4C4C4"/>
    <rect x="0.288574" y="0.287842" width="39.7114" height="0.575528" fill="#C4C4C4"/>
    <rect x="0.288086" y="16.978" width="26.1865" height="0.575528" fill="#C4C4C4"/>
    <rect x="0.86377" y="0.28772" width="17.2658" height="0.575526" transform="rotate(90 0.86377 0.28772)"
          fill="#C4C4C4"/>
    <rect x="4.31689" y="3.74084" width="13.8127" height="0.575527" transform="rotate(90 4.31689 3.74084)"
          fill="#C4C4C4"/>
    <rect x="26.4746" y="14.1003" width="20.1435" height="0.575527" transform="rotate(90 26.4746 14.1003)"
          fill="#C4C4C4"/>
    <rect x="7.77002" y="6.90625" width="10.6473" height="0.575527" transform="rotate(90 7.77002 6.90625)"
          fill="#C4C4C4"/>
    <rect x="29.9282" y="10.3595" width="24.1722" height="0.575527" transform="rotate(90 29.9282 10.3595)"
          fill="#C4C4C4"/>
    <rect x="10.9355" y="10.3595" width="7.1941" height="0.575528" transform="rotate(90 10.9355 10.3595)"
          fill="#C4C4C4"/>
    <rect x="33.0933" y="6.90625" width="27.6254" height="0.575527" transform="rotate(90 33.0933 6.90625)"
          fill="#C4C4C4"/>
    <rect x="14.3887" y="13.8126" width="3.74093" height="0.575528" transform="rotate(90 14.3887 13.8126)"
          fill="#C4C4C4"/>
    <rect x="36.5464" y="3.74084" width="30.7908" height="0.575527" transform="rotate(90 36.5464 3.74084)"
          fill="#C4C4C4"/>
    <rect x="40" y="0.5755" width="33.9562" height="0.575526" transform="rotate(90 40 0.5755)" fill="#C4C4C4"/>
    <rect y="33.6685" width="26.1865" height="0.575528" fill="#C4C4C4"/>
    <rect x="13.5249" y="13.525" width="12.6616" height="0.575528" fill="#C4C4C4"/>
    <rect y="30.2152" width="26.1865" height="0.575528" fill="#C4C4C4"/>
    <rect x="10.3594" y="10.0717" width="18.9924" height="0.575528" fill="#C4C4C4"/>
    <rect y="26.762" width="26.1865" height="0.575528" fill="#C4C4C4"/>
    <rect x="7.19434" y="6.61853" width="25.0355" height="0.575528" fill="#C4C4C4"/>
    <rect y="23.5967" width="26.1865" height="0.575528" fill="#C4C4C4"/>
    <rect x="3.74121" y="3.45325" width="32.2296" height="0.575528" fill="#C4C4C4"/>
    <rect y="20.1435" width="26.1865" height="0.575528" fill="#C4C4C4"/>
    <rect x="0.000488281" width="39.7114" height="0.575528" fill="#C4C4C4"/>
    <rect y="16.6902" width="26.1865" height="0.575528" fill="#C4C4C4"/>
    <rect x="0.575684" width="17.2658" height="0.575526" transform="rotate(90 0.575684 0)" fill="#C4C4C4"/>
    <rect x="4.02881" y="3.45325" width="13.8127" height="0.575527" transform="rotate(90 4.02881 3.45325)"
          fill="#C4C4C4"/>
    <rect x="26.1865" y="13.8126" width="20.1435" height="0.575527" transform="rotate(90 26.1865 13.8126)"
          fill="#C4C4C4"/>
    <rect x="7.48193" y="6.61853" width="10.6473" height="0.575527" transform="rotate(90 7.48193 6.61853)"
          fill="#C4C4C4"/>
    <rect x="29.6401" y="10.0717" width="24.1722" height="0.575527" transform="rotate(90 29.6401 10.0717)"
          fill="#C4C4C4"/>
    <rect x="10.6475" y="10.0717" width="7.1941" height="0.575528" transform="rotate(90 10.6475 10.0717)"
          fill="#C4C4C4"/>
    <rect x="32.8052" y="6.61853" width="27.6254" height="0.575527" transform="rotate(90 32.8052 6.61853)"
          fill="#C4C4C4"/>
    <rect x="14.1006" y="13.525" width="3.74093" height="0.575528" transform="rotate(90 14.1006 13.525)"
          fill="#C4C4C4"/>
    <rect x="36.2583" y="3.45325" width="30.7908" height="0.575527" transform="rotate(90 36.2583 3.45325)"
          fill="#C4C4C4"/>
    <rect x="39.7119" y="0.287781" width="33.9562" height="0.575526" transform="rotate(90 39.7119 0.287781)"
          fill="#C4C4C4"/>
    <rect x="0.288086" y="33.6685" width="26.1865" height="0.575528" fill="#C4C4C4"/>
    <rect x="13.8135" y="13.525" width="12.6616" height="0.575528" fill="#C4C4C4"/>
    <rect x="0.288086" y="30.2152" width="26.1865" height="0.575528" fill="#C4C4C4"/>
    <rect x="10.6475" y="10.0717" width="18.9924" height="0.575528" fill="#C4C4C4"/>
    <rect x="0.288086" y="26.762" width="26.1865" height="0.575528" fill="#C4C4C4"/>
    <rect x="7.48242" y="6.61853" width="25.0355" height="0.575528" fill="#C4C4C4"/>
    <rect x="0.288086" y="23.5967" width="26.1865" height="0.575528" fill="#C4C4C4"/>
    <rect x="4.0293" y="3.45325" width="32.2296" height="0.575528" fill="#C4C4C4"/>
    <rect x="0.288086" y="20.1435" width="26.1865" height="0.575528" fill="#C4C4C4"/>
    <rect x="0.288574" width="39.7114" height="0.575528" fill="#C4C4C4"/>
    <rect x="0.288086" y="16.6902" width="26.1865" height="0.575528" fill="#C4C4C4"/>
    <rect x="0.86377" width="17.2658" height="0.575526" transform="rotate(90 0.86377 0)" fill="#C4C4C4"/>
    <rect x="4.31689" y="3.45325" width="13.8127" height="0.575527" transform="rotate(90 4.31689 3.45325)"
          fill="#C4C4C4"/>
    <rect x="26.4746" y="13.8126" width="20.1435" height="0.575527" transform="rotate(90 26.4746 13.8126)"
          fill="#C4C4C4"/>
    <rect x="7.77002" y="6.61853" width="10.6473" height="0.575527" transform="rotate(90 7.77002 6.61853)"
          fill="#C4C4C4"/>
    <rect x="29.9282" y="10.0717" width="24.1722" height="0.575527" transform="rotate(90 29.9282 10.0717)"
          fill="#C4C4C4"/>
    <rect x="10.9355" y="10.0717" width="7.1941" height="0.575528" transform="rotate(90 10.9355 10.0717)"
          fill="#C4C4C4"/>
    <rect x="33.0933" y="6.61853" width="27.6254" height="0.575527" transform="rotate(90 33.0933 6.61853)"
          fill="#C4C4C4"/>
    <rect x="14.3887" y="13.525" width="3.74093" height="0.575528" transform="rotate(90 14.3887 13.525)"
          fill="#C4C4C4"/>
    <rect x="36.5464" y="3.45325" width="30.7908" height="0.575527" transform="rotate(90 36.5464 3.45325)"
          fill="#C4C4C4"/>
    <rect x="40" y="0.287781" width="33.9562" height="0.575526" transform="rotate(90 40 0.287781)" fill="#C4C4C4"/>
</svg>
