<svg width="46" height="39" viewBox="0 0 46 39" fill="none" xmlns="http://www.w3.org/2000/svg">
    <path d="M0 38.1526H29.6489V38.797H0V38.1526Z" fill="#fff"/>
    <path d="M15.3132 15.5977H29.6489V16.2421H15.3132V15.5977Z" fill="#fff"/>
    <path d="M0 34.286H29.6489V34.9305H0V34.286Z" fill="#fff"/>
    <path d="M11.7292 11.7311H33.2328V12.3756H11.7292V11.7311Z" fill="#fff"/>
    <path d="M0 30.4195H29.6489V31.0639H0V30.4195Z" fill="#fff"/>
    <path d="M8.1453 7.86458H36.4909V8.509H8.1453V7.86458Z" fill="#fff"/>
    <path d="M0 26.8751H29.6489V27.5196H0V26.8751Z" fill="#fff"/>
    <path d="M4.23556 4.32024H40.7265V4.96466H4.23556V4.32024Z" fill="#fff"/>
    <path d="M0 23.0086H29.6489V23.653H0V23.0086Z" fill="#fff"/>
    <path d="M0 0.453683H44.9621V1.09811H0V0.453683Z" fill="#fff"/>
    <path d="M0 19.142H29.6489V19.7865H0V19.142Z" fill="#fff"/>
    <path d="M0.651624 0.453683L0.651623 19.7865H0V0.453683H0.651624Z" fill="#fff"/>
    <path d="M4.56137 4.32024L4.56137 19.7865H3.90974L3.90975 4.32024H4.56137Z" fill="#fff"/>
    <path d="M29.6489 15.9199V38.4748H28.9973V15.9199H29.6489Z" fill="#fff"/>
    <path d="M8.47111 7.86458V19.7865H7.81949L7.81949 7.86458H8.47111Z" fill="#fff"/>
    <path d="M33.5586 11.7311L33.5586 38.797H32.907V11.7311H33.5586Z" fill="#fff"/>
    <path d="M12.055 11.7311V19.7865H11.4034V11.7311H12.055Z" fill="#fff"/>
    <path d="M37.1426 7.86458L37.1426 38.797H36.4909V7.86458H37.1426Z" fill="#fff"/>
    <path d="M15.9648 15.5977V19.7865H15.3132V15.5977H15.9648Z" fill="#fff"/>
    <path d="M41.0523 4.32024V38.797H40.4007V4.32024H41.0523Z" fill="#fff"/>
    <path d="M44.9621 0.775895V38.797H44.3104V0.775895H44.9621Z" fill="#fff"/>
    <path d="M0.325812 38.1526H29.9747V38.797H0.325812V38.1526Z" fill="#fff"/>
    <path d="M15.639 15.5977H29.9747V16.2421H15.639V15.5977Z" fill="#fff"/>
    <path d="M0.325812 34.286H29.9747V34.9305H0.325812V34.286Z" fill="#fff"/>
    <path d="M12.055 11.7311H33.5586V12.3756H12.055V11.7311Z" fill="#fff"/>
    <path d="M0.325812 30.4195H29.9747V31.0639H0.325812V30.4195Z" fill="#fff"/>
    <path d="M8.47111 7.86458H36.8168V8.509H8.47111V7.86458Z" fill="#fff"/>
    <path d="M0.325812 26.8751H29.9747V27.5196H0.325812V26.8751Z" fill="#fff"/>
    <path d="M4.56137 4.32024H41.0523V4.96466H4.56137V4.32024Z" fill="#fff"/>
    <path d="M0.325812 23.0086H29.9747V23.653H0.325812V23.0086Z" fill="#fff"/>
    <path d="M0.325812 0.453683H45.2879V1.09811H0.325812V0.453683Z" fill="#fff"/>
    <path d="M0.325812 19.142H29.9747V19.7865H0.325812V19.142Z" fill="#fff"/>
    <path d="M0.977436 0.453683L0.977435 19.7865H0.325812V0.453683H0.977436Z" fill="#fff"/>
    <path d="M4.88718 4.32024L4.88718 19.7865H4.23556V4.32024H4.88718Z" fill="#fff"/>
    <path d="M29.9747 15.9199V38.4748H29.3231V15.9199H29.9747Z" fill="#fff"/>
    <path d="M8.79693 7.86458L8.79692 19.7865H8.1453V7.86458H8.79693Z" fill="#fff"/>
    <path d="M33.8844 11.7311V38.797H33.2328V11.7311H33.8844Z" fill="#fff"/>
    <path d="M12.3809 11.7311V19.7865H11.7292V11.7311H12.3809Z" fill="#fff"/>
    <path d="M37.4684 7.86458L37.4684 38.797H36.8168V7.86458H37.4684Z" fill="#fff"/>
    <path d="M16.2906 15.5977V19.7865H15.639V15.5977H16.2906Z" fill="#fff"/>
    <path d="M41.3781 4.32024L41.3781 38.797H40.7265V4.32024H41.3781Z" fill="#fff"/>
    <path d="M45.2879 0.775895V38.797H44.6362V0.775895H45.2879Z" fill="#fff"/>
    <path d="M0 37.8304H29.6489V38.4748H0V37.8304Z" fill="#fff"/>
    <path d="M15.3132 15.2755H29.6489V15.9199H15.3132V15.2755Z" fill="#fff"/>
    <path d="M0 33.9638H29.6489V34.6082H0V33.9638Z" fill="#fff"/>
    <path d="M11.7292 11.4089H33.2328V12.0533H11.7292V11.4089Z" fill="#fff"/>
    <path d="M0 30.0973H29.6489V30.7417H0V30.0973Z" fill="#fff"/>
    <path d="M8.1453 7.54237H36.4909V8.18679H8.1453V7.54237Z" fill="#fff"/>
    <path d="M0 26.5529H29.6489V27.1973H0V26.5529Z" fill="#fff"/>
    <path d="M4.23556 3.99802H40.7265V4.64245H4.23556V3.99802Z" fill="#fff"/>
    <path d="M0 22.6864H29.6489V23.3308H0V22.6864Z" fill="#fff"/>
    <path d="M0 0.13147H44.9621V0.775895H0V0.13147Z" fill="#fff"/>
    <path d="M0 18.8198H29.6489V19.4642H0V18.8198Z" fill="#fff"/>
    <path d="M0.651624 0.13147L0.651623 19.4642H0V0.13147H0.651624Z" fill="#fff"/>
    <path d="M4.56137 3.99802L4.56137 19.4642H3.90974L3.90975 3.99802H4.56137Z" fill="#fff"/>
    <path d="M29.6489 15.5977V38.1526H28.9973V15.5977H29.6489Z" fill="#fff"/>
    <path d="M8.47111 7.54237V19.4642H7.81949L7.81949 7.54237H8.47111Z" fill="#fff"/>
    <path d="M33.5586 11.4089L33.5586 38.4748H32.907V11.4089H33.5586Z" fill="#fff"/>
    <path d="M12.055 11.4089V19.4642H11.4034V11.4089H12.055Z" fill="#fff"/>
    <path d="M37.1426 7.54237L37.1426 38.4748H36.4909V7.54237H37.1426Z" fill="#fff"/>
    <path d="M15.9648 15.2755V19.4642H15.3132V15.2755H15.9648Z" fill="#fff"/>
    <path d="M41.0523 3.99802V38.4748H40.4007V3.99802H41.0523Z" fill="#fff"/>
    <path d="M44.9621 0.453683V38.4748H44.3104V0.453683L44.9621 0.453683Z" fill="#fff"/>
    <path d="M0.325812 37.8304H29.9747V38.4748H0.325812V37.8304Z" fill="#fff"/>
    <path d="M15.639 15.2755H29.9747V15.9199H15.639V15.2755Z" fill="#fff"/>
    <path d="M0.325812 33.9638H29.9747V34.6082H0.325812V33.9638Z" fill="#fff"/>
    <path d="M12.055 11.4089H33.5586V12.0533H12.055V11.4089Z" fill="#fff"/>
    <path d="M0.325812 30.0973H29.9747V30.7417H0.325812V30.0973Z" fill="#fff"/>
    <path d="M8.47111 7.54237H36.8168V8.18679H8.47111V7.54237Z" fill="#fff"/>
    <path d="M0.325812 26.5529H29.9747V27.1973H0.325812V26.5529Z" fill="#fff"/>
    <path d="M4.56137 3.99802H41.0523V4.64245H4.56137V3.99802Z" fill="#fff"/>
    <path d="M0.325812 22.6864H29.9747V23.3308H0.325812V22.6864Z" fill="#fff"/>
    <path d="M0.325812 0.13147H45.2879V0.775895H0.325812V0.13147Z" fill="#fff"/>
    <path d="M0.325812 18.8198H29.9747V19.4642H0.325812V18.8198Z" fill="#fff"/>
    <path d="M0.977436 0.13147L0.977435 19.4642H0.325812V0.13147H0.977436Z" fill="#fff"/>
    <path d="M4.88718 3.99802L4.88718 19.4642H4.23556V3.99802H4.88718Z" fill="#fff"/>
    <path d="M29.9747 15.5977V38.1526H29.3231V15.5977H29.9747Z" fill="#fff"/>
    <path d="M8.79693 7.54237L8.79692 19.4642H8.1453V7.54237H8.79693Z" fill="#fff"/>
    <path d="M33.8844 11.4089V38.4748H33.2328V11.4089H33.8844Z" fill="#fff"/>
    <path d="M12.3809 11.4089V19.4642H11.7292V11.4089H12.3809Z" fill="#fff"/>
    <path d="M37.4684 7.54237L37.4684 38.4748H36.8168V7.54237H37.4684Z" fill="#fff"/>
    <path d="M16.2906 15.2755V19.4642H15.639V15.2755H16.2906Z" fill="#fff"/>
    <path d="M41.3781 3.99802L41.3781 38.4748H40.7265V3.99802H41.3781Z" fill="#fff"/>
    <path d="M45.2879 0.453683V38.4748H44.6362V0.453683L45.2879 0.453683Z" fill="#fff"/>
</svg>
