<svg width="127" height="40" viewBox="0 0 127 40" fill="none" xmlns="http://www.w3.org/2000/svg">
    <path d="M0 39.1309H30.1233V39.7918H0V39.1309Z" fill="white"/>
    <path d="M15.5582 15.9976H30.1233V16.6586H15.5582V15.9976Z" fill="white"/>
    <path d="M0 35.1652H30.1233V35.8261H0V35.1652Z" fill="white"/>
    <path d="M11.9169 12.0319H33.7646V12.6929H11.9169V12.0319Z" fill="white"/>
    <path d="M0 31.1995H30.1233V31.8604H0V31.1995Z" fill="white"/>
    <path d="M8.27563 8.06623H37.0748V8.72718H8.27563V8.06623Z" fill="white"/>
    <path d="M0 27.5642H30.1233V28.2252H0V27.5642Z" fill="white"/>
    <path d="M4.30333 4.43101H41.3781V5.09195H4.30333V4.43101Z" fill="white"/>
    <path d="M0 23.5985H30.1233V24.2595H0V23.5985Z" fill="white"/>
    <path d="M0 0.465309H45.6815V1.12626H0V0.465309Z" fill="white"/>
    <path d="M0 19.6328H30.1233V20.2938H0V19.6328Z" fill="white"/>
    <path d="M0.66205 0.465309L0.662049 20.2938H0V0.465309H0.66205Z" fill="white"/>
    <path d="M4.63435 4.43101L4.63435 20.2938H3.9723L3.9723 4.43101H4.63435Z" fill="white"/>
    <path d="M30.1233 16.3281V39.4613H29.4612V16.3281H30.1233Z" fill="white"/>
    <path d="M8.60665 8.06623V20.2938H7.9446L7.9446 8.06623H8.60665Z" fill="white"/>
    <path d="M34.0956 12.0319L34.0956 39.7918H33.4335V12.0319H34.0956Z" fill="white"/>
    <path d="M12.2479 12.0319V20.2938H11.5859V12.0319H12.2479Z" fill="white"/>
    <path d="M37.7369 8.06623L37.7368 39.7918H37.0748V8.06623H37.7369Z" fill="white"/>
    <path d="M16.2202 15.9976V20.2938H15.5582V15.9976H16.2202Z" fill="white"/>
    <path d="M41.7092 4.43101V39.7918H41.0471V4.43101H41.7092Z" fill="white"/>
    <path d="M45.6815 0.795784V39.7918H45.0194V0.795784H45.6815Z" fill="white"/>
    <path d="M0.331025 39.1309H30.4543V39.7918H0.331025V39.1309Z" fill="white"/>
    <path d="M15.8892 15.9976H30.4543V16.6586H15.8892V15.9976Z" fill="white"/>
    <path d="M0.331025 35.1652H30.4543V35.8261H0.331025V35.1652Z" fill="white"/>
    <path d="M12.2479 12.0319H34.0956V12.6929H12.2479V12.0319Z" fill="white"/>
    <path d="M0.331025 31.1995H30.4543V31.8604H0.331025V31.1995Z" fill="white"/>
    <path d="M8.60665 8.06623H37.4058V8.72718H8.60665V8.06623Z" fill="white"/>
    <path d="M0.331025 27.5642H30.4543V28.2252H0.331025V27.5642Z" fill="white"/>
    <path d="M4.63435 4.43101H41.7092V5.09195H4.63435V4.43101Z" fill="white"/>
    <path d="M0.331025 23.5985H30.4543V24.2595H0.331025V23.5985Z" fill="white"/>
    <path d="M0.331025 0.465309H46.0125V1.12626H0.331025V0.465309Z" fill="white"/>
    <path d="M0.331025 19.6328H30.4543V20.2938H0.331025V19.6328Z" fill="white"/>
    <path d="M0.993075 0.465309L0.993074 20.2938H0.331025V0.465309H0.993075Z" fill="white"/>
    <path d="M4.96537 4.43101L4.96537 20.2938H4.30333V4.43101H4.96537Z" fill="white"/>
    <path d="M30.4543 16.3281V39.4613H29.7923V16.3281H30.4543Z" fill="white"/>
    <path d="M8.93768 8.06623L8.93767 20.2938H8.27563V8.06623H8.93768Z" fill="white"/>
    <path d="M34.4266 12.0319V39.7918H33.7646V12.0319H34.4266Z" fill="white"/>
    <path d="M12.579 12.0319V20.2938H11.9169V12.0319H12.579Z" fill="white"/>
    <path d="M38.0679 8.06623L38.0679 39.7918H37.4058V8.06623H38.0679Z" fill="white"/>
    <path d="M16.5513 15.9976V20.2938H15.8892V15.9976H16.5513Z" fill="white"/>
    <path d="M42.0402 4.43101L42.0402 39.7918H41.3781V4.43101H42.0402Z" fill="white"/>
    <path d="M46.0125 0.795784V39.7918H45.3504V0.795784H46.0125Z" fill="white"/>
    <path d="M0 38.8004H30.1233V39.4613H0V38.8004Z" fill="white"/>
    <path d="M15.5582 15.6671H30.1233V16.3281H15.5582V15.6671Z" fill="white"/>
    <path d="M0 34.8347H30.1233V35.4956H0V34.8347Z" fill="white"/>
    <path d="M11.9169 11.7014H33.7646V12.3624H11.9169V11.7014Z" fill="white"/>
    <path d="M0 30.869H30.1233V31.5299H0V30.869Z" fill="white"/>
    <path d="M8.27563 7.73575H37.0748V8.3967H8.27563V7.73575Z" fill="white"/>
    <path d="M0 27.2338H30.1233V27.8947H0V27.2338Z" fill="white"/>
    <path d="M4.30333 4.10053H41.3781V4.76148H4.30333V4.10053Z" fill="white"/>
    <path d="M0 23.2681H30.1233V23.929H0V23.2681Z" fill="white"/>
    <path d="M0 0.134834H45.6815V0.795784H0V0.134834Z" fill="white"/>
    <path d="M0 19.3024H30.1233V19.9633H0V19.3024Z" fill="white"/>
    <path d="M0.66205 0.134834L0.662049 19.9633H0V0.134834H0.66205Z" fill="white"/>
    <path d="M4.63435 4.10053L4.63435 19.9633H3.9723L3.9723 4.10053H4.63435Z" fill="white"/>
    <path d="M30.1233 15.9976V39.1309H29.4612V15.9976H30.1233Z" fill="white"/>
    <path d="M8.60665 7.73575V19.9633H7.9446L7.9446 7.73575H8.60665Z" fill="white"/>
    <path d="M34.0956 11.7014L34.0956 39.4613H33.4335V11.7014H34.0956Z" fill="white"/>
    <path d="M12.2479 11.7014V19.9633H11.5859V11.7014H12.2479Z" fill="white"/>
    <path d="M37.7369 7.73575L37.7368 39.4613H37.0748V7.73575H37.7369Z" fill="white"/>
    <path d="M16.2202 15.6671V19.9633H15.5582V15.6671H16.2202Z" fill="white"/>
    <path d="M41.7092 4.10053V39.4613H41.0471V4.10053H41.7092Z" fill="white"/>
    <path d="M45.6815 0.465309V39.4613H45.0194V0.465309L45.6815 0.465309Z" fill="white"/>
    <path d="M0.331025 38.8004H30.4543V39.4613H0.331025V38.8004Z" fill="white"/>
    <path d="M15.8892 15.6671H30.4543V16.3281H15.8892V15.6671Z" fill="white"/>
    <path d="M0.331025 34.8347H30.4543V35.4956H0.331025V34.8347Z" fill="white"/>
    <path d="M12.2479 11.7014H34.0956V12.3624H12.2479V11.7014Z" fill="white"/>
    <path d="M0.331025 30.869H30.4543V31.5299H0.331025V30.869Z" fill="white"/>
    <path d="M8.60665 7.73575H37.4058V8.3967H8.60665V7.73575Z" fill="white"/>
    <path d="M0.331025 27.2338H30.4543V27.8947H0.331025V27.2338Z" fill="white"/>
    <path d="M4.63435 4.10053H41.7092V4.76148H4.63435V4.10053Z" fill="white"/>
    <path d="M0.331025 23.2681H30.4543V23.929H0.331025V23.2681Z" fill="white"/>
    <path d="M0.331025 0.134834H46.0125V0.795784H0.331025V0.134834Z" fill="white"/>
    <path d="M0.331025 19.3024H30.4543V19.9633H0.331025V19.3024Z" fill="white"/>
    <path d="M0.993075 0.134834L0.993074 19.9633H0.331025V0.134834H0.993075Z" fill="white"/>
    <path d="M4.96537 4.10053L4.96537 19.9633H4.30333V4.10053H4.96537Z" fill="white"/>
    <path d="M30.4543 15.9976V39.1309H29.7923V15.9976H30.4543Z" fill="white"/>
    <path d="M8.93768 7.73575L8.93767 19.9633H8.27563V7.73575H8.93768Z" fill="white"/>
    <path d="M34.4266 11.7014V39.4613H33.7646V11.7014H34.4266Z" fill="white"/>
    <path d="M12.579 11.7014V19.9633H11.9169V11.7014H12.579Z" fill="white"/>
    <path d="M38.0679 7.73575L38.0679 39.4613H37.4058V7.73575H38.0679Z" fill="white"/>
    <path d="M16.5513 15.6671V19.9633H15.8892V15.6671H16.5513Z" fill="white"/>
    <path d="M42.0402 4.10053L42.0402 39.4613H41.3781V4.10053H42.0402Z" fill="white"/>
    <path d="M46.0125 0.465309V39.4613H45.3504V0.465309L46.0125 0.465309Z" fill="white"/>
    <path d="M57.7559 0.642443H60.1155V25.9119H57.7559V0.642443Z" fill="white"/>
    <path d="M86.8486 24.2701C85.3709 25.1029 83.8336 25.6858 82.2368 26.0189C80.6637 26.3758 79.055 26.5543 77.4104 26.5543C75.4799 26.5543 73.7043 26.2331 72.0836 25.5906C70.4867 24.9244 69.1163 24.0083 67.9722 22.8424C66.8282 21.6527 65.9344 20.2488 65.2909 18.6308C64.6474 16.989 64.3257 15.2045 64.3257 13.2772C64.3257 11.3498 64.6474 9.57716 65.2909 7.95915C65.9344 6.34115 66.8282 4.94919 67.9722 3.78327C69.1163 2.59357 70.4867 1.66559 72.0836 0.999355C73.7043 0.333118 75.4799 0 77.4104 0C81.1762 0 84.215 1.16591 86.5269 3.49774L84.8108 5.28231C84.4295 4.83022 83.9528 4.41382 83.3808 4.03311C82.8326 3.62861 82.2249 3.29549 81.5575 3.03376C80.914 2.74823 80.2347 2.53408 79.5197 2.39131C78.8047 2.22476 78.1016 2.14148 77.4104 2.14148C75.7659 2.14148 74.2763 2.42701 72.9416 2.99807C71.6307 3.56913 70.5105 4.35433 69.581 5.35369C68.6515 6.35304 67.9365 7.53086 67.436 8.88713C66.9355 10.2434 66.6852 11.7067 66.6852 13.2772C66.6852 14.8476 66.9355 16.3109 67.436 17.6672C67.9365 19.0234 68.6515 20.2013 69.581 21.2006C70.5105 22.2 71.6307 22.9852 72.9416 23.5562C74.2763 24.1273 75.7659 24.4128 77.4104 24.4128C78.769 24.4128 80.0441 24.3058 81.2358 24.0916C82.4274 23.8775 83.5119 23.4849 84.4891 22.9138V14.4193H78.4114V12.2778H86.8486V24.2701Z"
          fill="white"/>
    <path d="M92.7232 0.642443H108.203V2.78392H95.0827V11.7781H107.381V13.9196H95.0827V23.7704H108.775V25.9119H92.7232V0.642443Z"
          fill="white"/>
    <path d="M112.843 0.642443H115.202V23.7704H127V25.9119H112.843V0.642443Z" fill="white"/>
    <path d="M57.6596 31.6026H58.7718V39.7918H57.6596V31.6026Z" fill="white"/>
    <path d="M60.9653 31.6026H62.6221L65.2289 37.8023H65.2752L67.8589 31.6026H69.5157V39.7918H68.4034V33.06H68.3802L65.6112 39.7918H64.8697L62.1007 33.06H62.0775V39.7918H60.9653V31.6026Z"
          fill="white"/>
    <path d="M71.6272 31.6026H73.284L75.8908 37.8023H75.9371L78.5208 31.6026H80.1776V39.7918H79.0653V33.06H79.0421L76.2731 39.7918H75.5316L72.7626 33.06H72.7394V39.7918H71.6272V31.6026Z"
          fill="white"/>
    <path d="M86.1356 40C85.51 40 84.9345 39.892 84.4093 39.6761C83.8841 39.4525 83.4322 39.1479 83.0537 38.7624C82.683 38.3768 82.3895 37.9219 82.1732 37.3975C81.9647 36.8732 81.8604 36.3064 81.8604 35.6972C81.8604 35.088 81.9647 34.5213 82.1732 33.9969C82.3895 33.4726 82.683 33.0176 83.0537 32.6321C83.4322 32.2465 83.8841 31.9458 84.4093 31.7299C84.9345 31.5062 85.51 31.3944 86.1356 31.3944C86.7612 31.3944 87.3367 31.5062 87.8619 31.7299C88.3871 31.9458 88.8351 32.2465 89.2058 32.6321C89.5843 33.0176 89.8778 33.4726 90.0864 33.9969C90.3026 34.5213 90.4108 35.088 90.4108 35.6972C90.4108 36.3064 90.3026 36.8732 90.0864 37.3975C89.8778 37.9219 89.5843 38.3768 89.2058 38.7624C88.8351 39.1479 88.3871 39.4525 87.8619 39.6761C87.3367 39.892 86.7612 40 86.1356 40ZM86.1356 38.959C86.6068 38.959 87.0316 38.8742 87.41 38.7045C87.7885 38.5272 88.1129 38.292 88.3832 37.999C88.6536 37.706 88.8621 37.3628 89.0089 36.9695C89.1556 36.5686 89.229 36.1445 89.229 35.6972C89.229 35.25 89.1556 34.8297 89.0089 34.4365C88.8621 34.0355 88.6536 33.6885 88.3832 33.3955C88.1129 33.1024 87.7885 32.8711 87.41 32.7015C87.0316 32.5241 86.6068 32.4354 86.1356 32.4354C85.6644 32.4354 85.2396 32.5241 84.8611 32.7015C84.4827 32.8711 84.1583 33.1024 83.8879 33.3955C83.6176 33.6885 83.409 34.0355 83.2623 34.4365C83.1155 34.8297 83.0422 35.25 83.0422 35.6972C83.0422 36.1445 83.1155 36.5686 83.2623 36.9695C83.409 37.3628 83.6176 37.706 83.8879 37.999C84.1583 38.292 84.4827 38.5272 84.8611 38.7045C85.2396 38.8742 85.6644 38.959 86.1356 38.959Z"
          fill="white"/>
    <path d="M92.1722 31.6026H95.0223C95.3776 31.6026 95.7059 31.645 96.0071 31.7299C96.3161 31.8147 96.5787 31.9419 96.795 32.1116C97.0189 32.2735 97.1927 32.4856 97.3163 32.7477C97.4476 33.0022 97.5133 33.3029 97.5133 33.6499C97.5133 34.1203 97.382 34.5059 97.1194 34.8066C96.8568 35.0996 96.5169 35.3155 96.0998 35.4543V35.4775C96.347 35.4929 96.5787 35.5584 96.795 35.6741C97.0112 35.782 97.1966 35.9285 97.3511 36.1136C97.5133 36.291 97.6407 36.4992 97.7334 36.7382C97.8261 36.9773 97.8724 37.2356 97.8724 37.5132C97.8724 37.8833 97.7952 38.211 97.6407 38.4963C97.494 38.7739 97.2893 39.0091 97.0267 39.2019C96.7641 39.3947 96.459 39.5412 96.1114 39.6414C95.7638 39.7417 95.3892 39.7918 94.9876 39.7918H92.1722V31.6026ZM93.2844 35.0032H94.8022C95.0107 35.0032 95.2077 34.9839 95.3931 34.9454C95.5784 34.8991 95.7406 34.8259 95.8797 34.7256C96.0187 34.6254 96.1268 34.4981 96.2041 34.3439C96.289 34.1897 96.3315 34.0008 96.3315 33.7772C96.3315 33.4533 96.2272 33.1718 96.0187 32.9328C95.8102 32.6938 95.4819 32.5742 95.0339 32.5742H93.2844V35.0032ZM93.2844 38.8202H94.918C95.088 38.8202 95.2733 38.8048 95.4742 38.7739C95.6827 38.7354 95.8758 38.666 96.0535 38.5657C96.2311 38.4578 96.3817 38.3151 96.5053 38.1378C96.6289 37.9604 96.6907 37.7252 96.6907 37.4322C96.6907 36.9464 96.5323 36.584 96.2157 36.3449C95.899 36.0982 95.4703 35.9748 94.9296 35.9748H93.2844V38.8202Z"
          fill="white"/>
    <path d="M99.6321 31.6026H100.744V39.7918H99.6321V31.6026Z" fill="white"/>
    <path d="M103.019 31.6026H104.131V38.7508H107.897V39.7918H103.019V31.6026Z" fill="white"/>
    <path d="M109.189 31.6026H110.301V39.7918H109.189V31.6026Z" fill="white"/>
    <path d="M112.576 31.6026H117.871V32.6436H113.688V35.0842H117.581V36.1252H113.688V38.7508H118.079V39.7918H112.576V31.6026Z"
          fill="white"/>
    <path d="M119.821 31.6026H121.281L125.799 38.3344H125.822V31.6026H126.935V39.7918H125.521L120.956 33.06H120.933V39.7918H119.821V31.6026Z"
          fill="white"/>
</svg>
