<svg id="Layer_1" data-name="Layer 1" xmlns="http://www.w3.org/2000/svg" viewBox="0 0 578.71 169.66"><path d="M264.58,130.6H258V5.84h6.61Z" style="fill:#2b975d"/><path d="M347.49,131.54a62,62,0,0,1-32.32-8.68A65.86,65.86,0,0,1,291.91,99.6a61.78,61.78,0,0,1-8.68-32.23,62,62,0,0,1,8.68-32.32,65.4,65.4,0,0,1,23.26-23.21A62.2,62.2,0,0,1,347.49,3.2q23.77,0,42.94,16.42L386,24.53Q368.82,9.71,347.49,9.71a55.64,55.64,0,0,0-29,7.79,59.15,59.15,0,0,0-20.85,20.85,55.67,55.67,0,0,0-7.79,29,55.5,55.5,0,0,0,7.79,28.93,59.15,59.15,0,0,0,20.85,20.85,55.64,55.64,0,0,0,29,7.79q22.45,0,39.82-16V73.41l-33.88.38-.09-6.51,40.58-.47v44.82Q374,131.55,347.49,131.54Z" style="fill:#2b975d"/><path d="M484.19,130.6H407.66V5.84h76.53v6.52h-70v51.8h59.08v6.52H414.17v53.41h70Z" style="fill:#2b975d"/><path d="M578.71,130.6H500.29V5.84h6.61V124.09h71.81Z" style="fill:#2b975d"/><path d="M261.82,148v21.5h-4.3V148Z" style="fill:#2b975d"/><path d="M305.65,148.19v21.26h-4.27V154.62l-5.45,14.83h-3.72l-5.45-14.77v14.77h-4.29V148.19h5.21l6.45,16,6.34-16Z" style="fill:#2b975d"/><path d="M349.48,148.19v21.26h-4.27V154.62l-5.45,14.83H336l-5.45-14.77v14.77H326.3V148.19h5.2l6.46,16,6.34-16Z" style="fill:#2b975d"/><path d="M385.67,149a10.13,10.13,0,0,1,3.87,3.92,12.09,12.09,0,0,1,0,11.37,10,10,0,0,1-3.87,3.93,11.37,11.37,0,0,1-10.93,0,10.15,10.15,0,0,1-3.87-3.93,12.17,12.17,0,0,1,0-11.37,10.26,10.26,0,0,1,3.87-3.92,11.37,11.37,0,0,1,10.93,0Zm-8.78,3.42a5.74,5.74,0,0,0-2.24,2.45,9,9,0,0,0,0,7.46,5.85,5.85,0,0,0,2.24,2.45,6.91,6.91,0,0,0,6.64,0,5.92,5.92,0,0,0,2.24-2.45,9.1,9.1,0,0,0,0-7.46,5.8,5.8,0,0,0-2.24-2.45,6.84,6.84,0,0,0-6.64,0Z" style="fill:#2b975d"/><path d="M426.06,160.21a5.21,5.21,0,0,1,1.17,3.39,5.35,5.35,0,0,1-1.81,4.28,7.78,7.78,0,0,1-5.25,1.57h-9.23V148H420a7.71,7.71,0,0,1,5,1.43,4.91,4.91,0,0,1,1.75,4,5,5,0,0,1-1.05,3.29,4.87,4.87,0,0,1-2.76,1.67A5.22,5.22,0,0,1,426.06,160.21ZM415.23,157h3.87a3.69,3.69,0,0,0,2.45-.71,2.57,2.57,0,0,0,.84-2.06,2.62,2.62,0,0,0-.82-2.07,3.71,3.71,0,0,0-2.53-.73h-3.81Zm6.7,8.24a2.65,2.65,0,0,0,.92-2.18,2.69,2.69,0,0,0-.93-2.2,4,4,0,0,0-2.63-.78h-4.06V166h4.09A4,4,0,0,0,421.93,165.2Z" style="fill:#2b975d"/><path d="M451.3,148v21.5H447V148Z" style="fill:#2b975d"/><path d="M476.24,166.16h7.22v3.29H472V148h4.29Z" style="fill:#2b975d"/><path d="M507.06,148v21.5h-4.29V148Z" style="fill:#2b975d"/><path d="M532,151.36v5.57h7.61v3.29H532V166h8.53v3.44H527.71V148h12.83v3.41Z" style="fill:#2b975d"/><path d="M578.67,169.45h-4.29l-9.63-14.62v14.62h-4.29V148h4.29l9.63,14.74V148h4.29Z" style="fill:#2b975d"/><rect x="0.04" y="82.7" width="111.35" height="3.98" style="fill:#2b975d"/><rect y="99.23" width="126.09" height="3.98" style="fill:#2b975d"/><rect y="115.76" width="126.67" height="3.98" style="fill:#2b975d"/><rect y="132.31" width="126.67" height="3.98" style="fill:#2b975d"/><rect y="148.84" width="127.25" height="3.98" style="fill:#2b975d"/><rect y="165.38" width="127.63" height="3.98" style="fill:#2b975d"/><path d="M2,85.84" style="fill:#2b975d"/><polygon points="196.07 169.45 192.09 169.45 192.09 3.99 4 3.98 3.99 85.84 0.01 85.84 0.02 0 196.07 0.01 196.07 169.45" style="fill:#2b975d"/><path d="M18.54,84.4" style="fill:#2b975d"/><polygon points="179.54 169.44 175.56 169.44 175.56 20.53 20.53 20.52 20.53 84.41 16.55 84.41 16.55 16.53 179.54 16.54 179.54 169.44" style="fill:#2b975d"/><path d="M35.08,84" style="fill:#2b975d"/><polygon points="163 169.44 159.02 169.44 159.03 37.06 37.08 37.06 37.08 84.04 33.09 84.04 33.09 33.08 163.01 33.08 163 169.44" style="fill:#2b975d"/><path d="M51.61,83.86" style="fill:#2b975d"/><polygon points="146.46 169.44 142.47 169.44 142.48 53.6 53.61 53.59 53.61 83.87 49.63 83.87 49.63 49.61 146.47 49.62 146.46 169.44" style="fill:#2b975d"/><polygon points="129.92 169.45 125.94 169.45 125.95 70.13 70.14 70.13 70.14 84.22 66.16 84.22 66.16 66.14 129.94 66.15 129.92 169.45" style="fill:#2b975d"/><path d="M84.69,84.68" style="fill:#2b975d"/><rect x="84.69" y="82.69" width="42.56" height="3.98" style="fill:#2b975d"/><line y1="119.75" y2="115.76" style="fill:#2b975d"/><line y1="136.3" y2="132.31" style="fill:#2b975d"/><line y1="169.36" y2="165.38" style="fill:#2b975d"/></svg>