<svg width="3" height="13" viewBox="0 0 3 13" fill="none" xmlns="http://www.w3.org/2000/svg">
    <path d="M1.84 0.535999V5.112C1.84 5.352 1.83467 5.58667 1.824 5.816C1.81333 6.04533 1.8 6.27733 1.784 6.512C1.768 6.74133 1.74667 6.97867 1.72 7.224C1.69867 7.464 1.672 7.72267 1.64 8H0.68C0.648 7.72267 0.618667 7.464 0.592 7.224C0.570667 6.97867 0.552 6.74133 0.536 6.512C0.52 6.27733 0.506667 6.04533 0.496 5.816C0.485333 5.58667 0.48 5.352 0.48 5.112V0.535999H1.84ZM0.136 11.12C0.136 10.9813 0.16 10.8507 0.208 10.728C0.261333 10.6053 0.333333 10.4987 0.424 10.408C0.514667 10.3173 0.618667 10.2453 0.736 10.192C0.858667 10.1387 0.992 10.112 1.136 10.112C1.27467 10.112 1.40267 10.1387 1.52 10.192C1.64267 10.2453 1.74933 10.3173 1.84 10.408C1.93067 10.4987 2.00267 10.6053 2.056 10.728C2.10933 10.8507 2.136 10.9813 2.136 11.12C2.136 11.264 2.10933 11.3973 2.056 11.52C2.00267 11.6373 1.93067 11.7413 1.84 11.832C1.74933 11.9227 1.64267 11.992 1.52 12.04C1.40267 12.0933 1.27467 12.12 1.136 12.12C0.992 12.12 0.858667 12.0933 0.736 12.04C0.618667 11.992 0.514667 11.9227 0.424 11.832C0.333333 11.7413 0.261333 11.6373 0.208 11.52C0.16 11.3973 0.136 11.264 0.136 11.12Z"
          fill="#F16D74"/>
</svg>
