<svg width="32" height="32" viewBox="0 0 32 32" fill="none" xmlns="http://www.w3.org/2000/svg">
    <path d="M30.0897 15.2231L27 16.7679L23 9.1077L26.1212 7.54712C26.3557 7.42987 26.6268 7.4094 26.8763 7.49012C27.1257 7.57083 27.3335 7.74628 27.4548 7.97867L30.5289 13.8658C30.5904 13.9835 30.6278 14.1123 30.639 14.2446C30.6501 14.377 30.6348 14.5102 30.5939 14.6365C30.553 14.7629 30.4874 14.8798 30.4008 14.9805C30.3142 15.0813 30.2085 15.1637 30.0897 15.2231V15.2231Z"
          stroke="#2B975D" stroke-width="2" stroke-linecap="round" stroke-linejoin="round"/>
    <path d="M4.99991 16.634L1.91021 15.0891C1.79143 15.0297 1.68567 14.9473 1.5991 14.8466C1.51253 14.7459 1.44688 14.6289 1.406 14.5026C1.36511 14.3762 1.3498 14.243 1.36096 14.1107C1.37212 13.9783 1.40953 13.8495 1.471 13.7318L4.54511 7.8447C4.66646 7.6123 4.87422 7.43686 5.12366 7.35614C5.3731 7.27542 5.64426 7.29589 5.87875 7.41314L8.99991 8.97372L4.99991 16.634Z"
          stroke="#2B975D" stroke-width="2" stroke-linecap="round" stroke-linejoin="round"/>
    <path d="M27 16.7679L25 19.1077L20.4004 23.7073C20.2783 23.8294 20.1266 23.9178 19.9602 23.9639C19.7938 24.01 19.6182 24.0123 19.4507 23.9704L12.2061 22.1592C12.0702 22.1252 11.943 22.0631 11.8326 21.9768L5 16.634"
          stroke="#2B975D" stroke-width="2" stroke-linecap="round" stroke-linejoin="round"/>
    <path d="M25.0001 19.1077L19.5001 15.1077L17.9001 16.3077C17.2077 16.827 16.3655 17.1077 15.5001 17.1077C14.6346 17.1077 13.7924 16.827 13.1001 16.3077L12.4225 15.7995C12.3078 15.7135 12.213 15.604 12.1445 15.4782C12.0759 15.3524 12.0351 15.2133 12.025 15.0704C12.0148 14.9275 12.0355 14.7841 12.0856 14.6498C12.1357 14.5156 12.214 14.3937 12.3154 14.2924L17.2072 9.40059C17.3 9.30773 17.4103 9.23407 17.5316 9.18382C17.6529 9.13356 17.7829 9.1077 17.9143 9.1077H23.0001"
          stroke="#2B975D" stroke-width="2" stroke-linecap="round" stroke-linejoin="round"/>
    <path d="M9.07227 8.97372L15.4873 7.10353C15.7164 7.03672 15.9619 7.05409 16.1794 7.15249L20.5005 9.10769"
          stroke="#2B975D" stroke-width="2" stroke-linecap="round" stroke-linejoin="round"/>
    <path d="M14 26.6077L10.2326 25.6658C10.0797 25.6276 9.938 25.5538 9.81907 25.4504L7 23" stroke="#2B975D"
          stroke-width="2" stroke-linecap="round" stroke-linejoin="round"/>
</svg>
