<svg width="32" height="32" viewBox="0 0 32 32" fill="none" xmlns="http://www.w3.org/2000/svg">
    <path d="M17.999 27.9979V4.99789C17.999 4.73268 17.8937 4.47832 17.7061 4.29079C17.5186 4.10325 17.2642 3.99789 16.999 3.99789H4.99902C4.73381 3.99789 4.47945 4.10325 4.29192 4.29079C4.10438 4.47832 3.99902 4.73268 3.99902 4.99789V27.9979"
          stroke="#2B975D" stroke-width="2" stroke-linecap="round" stroke-linejoin="round"/>
    <path d="M27.999 27.9979V12.9979C27.999 12.7327 27.8937 12.4783 27.7061 12.2908C27.5186 12.1033 27.2642 11.9979 26.999 11.9979H17.999"
          stroke="#2B975D" stroke-width="2" stroke-linecap="round" stroke-linejoin="round"/>
    <path d="M7.99902 8.99789H11.999" stroke="#2B975D" stroke-width="2" stroke-linecap="round" stroke-linejoin="round"/>
    <path d="M9.99902 18.9979H13.999" stroke="#2B975D" stroke-width="2" stroke-linecap="round" stroke-linejoin="round"/>
    <path d="M7.99902 23.9979H11.999" stroke="#2B975D" stroke-width="2" stroke-linecap="round" stroke-linejoin="round"/>
    <path d="M21.999 21.9979H23.999" stroke="#2B975D" stroke-width="2" stroke-linecap="round" stroke-linejoin="round"/>
    <path d="M21.999 16.9979H23.999" stroke="#2B975D" stroke-width="2" stroke-linecap="round" stroke-linejoin="round"/>
</svg>
