<svg width="25" height="25" viewBox="0 0 25 25" fill="none" xmlns="http://www.w3.org/2000/svg">
    <path d="M15.6816 2.6875C17.2709 3.11493 18.72 3.95245 19.8837 5.11618C21.0475 6.2799 21.885 7.72899 22.3124 9.31827"
          stroke="white" stroke-width="2" stroke-linecap="round" stroke-linejoin="round"/>
    <path d="M14.7109 6.31061C15.6645 6.56706 16.534 7.06958 17.2322 7.76781C17.9304 8.46605 18.4329 9.3355 18.6894 10.2891"
          stroke="white" stroke-width="2" stroke-linecap="round" stroke-linejoin="round"/>
    <path d="M7.83706 12.6268C8.80953 14.6149 10.4211 16.2192 12.4136 17.1826C12.5594 17.2517 12.7207 17.2816 12.8815 17.2694C13.0424 17.2573 13.1973 17.2034 13.3311 17.1132L16.2649 15.1568C16.3947 15.0703 16.544 15.0175 16.6993 15.0032C16.8546 14.989 17.011 15.0137 17.1543 15.0751L22.643 17.4274C22.8295 17.5066 22.9852 17.6443 23.0866 17.8196C23.188 17.995 23.2297 18.1986 23.2054 18.3997C23.0319 19.7572 22.3695 21.0049 21.3423 21.9092C20.3151 22.8135 18.9935 23.3125 17.625 23.3125C13.3981 23.3125 9.34435 21.6334 6.35549 18.6445C3.36662 15.6557 1.6875 11.6019 1.6875 7.37502C1.68757 6.00648 2.18648 4.68488 3.0908 3.65769C3.99512 2.6305 5.24285 1.96816 6.60035 1.79467C6.80146 1.77033 7.00503 1.81201 7.1804 1.91343C7.35576 2.01485 7.49341 2.17051 7.57262 2.35696L9.92698 7.85046C9.98787 7.99256 10.0127 8.14751 9.99921 8.30151C9.98573 8.45552 9.93437 8.6038 9.84971 8.73315L7.90014 11.712C7.8114 11.846 7.75895 12.0008 7.74789 12.1611C7.73684 12.3214 7.76756 12.4819 7.83706 12.6268V12.6268Z"
          stroke="white" stroke-width="2" stroke-linecap="round" stroke-linejoin="round"/>
</svg>
