<svg width="15" height="15" viewBox="0 0 15 15" fill="none" xmlns="http://www.w3.org/2000/svg">
    <path d="M13.564 14.3392L8.80149 9.57584C6.68288 11.0821 3.76352 10.7136 2.08555 8.72828C0.407578 6.74293 0.530787 3.803 2.36899 1.96501C4.2067 0.126212 7.14693 0.0024699 9.13265 1.68035C11.1184 3.35823 11.487 6.27788 9.98065 8.39667L14.7432 13.16L13.5648 14.3383L13.564 14.3392ZM5.90399 2.16666C4.32374 2.16631 2.9604 3.27557 2.63938 4.82287C2.31837 6.37017 3.12791 7.93023 4.57789 8.55854C6.02786 9.18684 7.71974 8.7107 8.62919 7.41838C9.53864 6.12607 9.41571 4.37277 8.33482 3.22001L8.83899 3.72001L8.27065 3.15334L8.26065 3.14334C7.63714 2.51599 6.78848 2.16428 5.90399 2.16666Z"
          fill="white"/>
</svg>
