<?xml version="1.0" standalone="no"?>
<!DOCTYPE svg PUBLIC "-//W3C//DTD SVG 20010904//EN"
 "http://www.w3.org/TR/2001/REC-SVG-20010904/DTD/svg10.dtd">
<svg version="1.0" xmlns="http://www.w3.org/2000/svg"
 width="736.000000pt" height="736.000000pt" viewBox="0 0 736.000000 736.000000"
 preserveAspectRatio="xMidYMid meet">
<metadata>
Created by potrace 1.14, written by Peter Selinger 2001-2017
</metadata>
<g transform="translate(0.000000,736.000000) scale(0.100000,-0.100000)"
fill="#000000" stroke="none">
<path d="M43 6782 l-43 -3 0 -1574 0 -1573 2318 1 2319 2 -1 -230 -1 -230
-2240 -2 c-1232 -1 -2275 -2 -2318 -3 l-78 0 3 -77 3 -78 2315 0 2315 0 0
-230 0 -230 -2285 -2 c-1257 0 -2300 -2 -2317 -2 l-33 -1 0 -78 0 -77 2308 1
c1269 0 2312 -1 2318 -3 12 -4 16 -402 5 -404 -3 -1 -1045 -2 -2316 -3 l-2310
-1 -3 -77 -3 -78 78 0 c43 -1 1086 -2 2318 -3 l2240 -2 1 -228 c1 -200 -1
-227 -15 -228 -9 0 -1052 -1 -2318 -2 l-2303 0 0 -79 0 -78 2318 0 2318 0 0
-230 1 -230 -2306 -1 c-1268 -1 -2312 -1 -2318 0 -10 1 -13 -20 -13 -79 l0
-80 2395 0 c1317 0 2396 3 2397 8 3 17 4 3738 1 3748 -3 7 -345 11 -1173 10
l-1170 0 0 -283 0 -283 -233 0 -234 0 0 515 -1 515 1642 -2 1641 -3 1 -2100
c1 -1155 2 -2106 3 -2113 1 -10 21 -12 77 -10 l77 3 0 2181 c0 1200 -3 2186
-6 2191 -4 7 -3558 12 -3588 4 -3 0 -6 -265 -6 -588 l0 -588 -206 -3 c-162 -2
-207 0 -208 10 0 16 0 1574 0 1609 l1 25 2213 0 2212 -1 1 -2420 0 -2420 80 0
79 0 1 2490 c0 1370 -1 2495 -3 2500 -2 7 -793 9 -2351 8 -1291 0 -2357 -2
-2369 -2 l-23 -1 0 -900 0 -900 -233 0 -233 0 1 1107 0 1108 2833 0 c2510 0
2835 -2 2841 -15 4 -8 6 -1221 6 -2695 -1 -1474 0 -2686 3 -2692 3 -9 28 -13
78 -13 l74 0 1 43 c4 264 0 5519 -4 5523 -4 4 -5634 8 -5952 4 l-40 0 0 -1182
0 -1183 -233 -3 c-216 -2 -232 -1 -233 15 0 10 -1 645 -1 1412 -1 961 2 1395
10 1400 5 3 1564 6 3464 5 l3453 0 2 -2995 c1 -1647 2 -3004 2 -3016 1 -22 5
-23 69 -23 37 0 72 4 78 8 17 11 16 6172 0 6178 -14 5 -7125 11 -7193 6z
m4593 -2789 l0 -203 -1013 0 -1013 0 -1 43 c0 52 0 279 0 329 l1 37 1013 -2
1012 -2 1 -202z"/>
</g>
</svg>
